<svg width="39" height="37" viewBox="0 0 39 37" fill="none" xmlns="http://www.w3.org/2000/svg">
<g clip-path="url(#clip0_2308_2)">
<path d="M23.3953 0.29528C23.775 0.57653 24 1.02653 24 1.49997V17.25C24 19.3218 21.9844 21 19.5 21C17.0156 21 15 19.3218 15 17.25C15 15.1781 17.0156 13.5 19.5 13.5C20.025 13.5 20.5312 13.575 21 13.7156V6.89059L9 10.4906V20.25C9 22.3218 6.98438 24 4.5 24C2.01562 24 0 22.3218 0 20.25C0 18.1781 2.01562 16.5 4.5 16.5C5.025 16.5 5.53125 16.575 6 16.7156V5.99997C6 5.33903 6.43594 4.75309 7.06875 4.56091L22.0687 0.0609055C22.5234 -0.075032 23.0156 0.00934298 23.3953 0.29528Z" fill="white"/>
</g>
<path d="M39 18.3224V19.4877C38.9983 20.03 38.8492 20.5646 38.5646 21.0492C38.2885 21.5379 37.8832 21.9648 37.381 22.296C36.8794 22.6239 36.2982 22.851 35.6803 22.9602C35.0585 23.0619 34.4187 23.05 33.8027 22.9253L28.034 21.5269V31.1057C28.0376 32.3908 27.5232 33.6377 26.5779 34.6357C25.6325 35.6337 24.314 36.3217 22.8449 36.5836C21.3759 36.8454 19.8464 36.6651 18.5146 36.073C17.1828 35.4809 16.1304 34.5134 15.535 33.3337C14.9396 32.154 14.8377 30.8345 15.2466 29.598C15.6555 28.3615 16.55 27.2836 17.7792 26.5465C19.0083 25.8094 20.4968 25.4582 21.9933 25.5521C23.4898 25.646 24.9026 26.1794 25.9932 27.0621V13.6262C25.9789 13.549 25.9789 13.4704 25.9932 13.3932V13.3C26.0591 13.1705 26.1601 13.0565 26.2879 12.9673C26.4157 12.8781 26.5666 12.8163 26.7279 12.7872H27.3265L35.898 14.8731C36.7722 15.0747 37.5435 15.5195 38.0903 16.1376C38.637 16.7557 38.9284 17.512 38.9184 18.2874L39 18.3224Z" fill="white"/>
<defs>
<clipPath id="clip0_2308_2">
<rect width="24" height="24" fill="white"/>
</clipPath>
</defs>
</svg>
